<?xml version="1.0" encoding="UTF-8" standalone="no"?>
<svg
   data-name="Layer 1"
   width="683.76331"
   height="607.63128"
   viewBox="0 0 683.76331 607.63128"
   version="1.1"
   id="svg74"
   sodipodi:docname="phone.svg"
   inkscape:version="1.1.2 (08b2f3d93c, 2022-04-05)"
   xmlns:inkscape="http://www.inkscape.org/namespaces/inkscape"
   xmlns:sodipodi="http://sodipodi.sourceforge.net/DTD/sodipodi-0.dtd"
   xmlns="http://www.w3.org/2000/svg"
   xmlns:svg="http://www.w3.org/2000/svg">
  <defs
     id="defs78" />
  <sodipodi:namedview
     id="namedview76"
     pagecolor="#ffffff"
     bordercolor="#666666"
     borderopacity="1.0"
     inkscape:pageshadow="2"
     inkscape:pageopacity="0.0"
     inkscape:pagecheckerboard="0"
     showgrid="false"
     inkscape:zoom="1.2425298"
     inkscape:cx="342.04411"
     inkscape:cy="496.56757"
     inkscape:window-width="1920"
     inkscape:window-height="944"
     inkscape:window-x="0"
     inkscape:window-y="34"
     inkscape:window-maximized="1"
     inkscape:current-layer="svg74" />
  <path
     d="M760.35437,290.55763h0V199.11105a52.92669,52.92669,0,0,0-52.92669-52.92669H513.68573A52.92674,52.92674,0,0,0,460.759,199.11109V700.79376a52.92669,52.92669,0,0,0,52.92668,52.92669H707.42774a52.92658,52.92658,0,0,0,52.92658-52.92658V355.6508h0a3.3381,3.3381,0,0,0,3.33811-3.3381v-58.417A3.33811,3.33811,0,0,0,760.35437,290.55763Z"
     transform="translate(-258.11835 -146.18436)"
     fill="#3f3d56"
     id="path6" />
  <path
     d="M749.09045,199.47433V700.43251a39.50023,39.50023,0,0,1-39.08837,39.50283,3.47056,3.47056,0,0,1-.43261.018H514.8846a39.5246,39.5246,0,0,1-39.52087-39.52087V199.47433a39.52453,39.52453,0,0,1,39.52087-39.52087h23.626a18.79175,18.79175,0,0,0,17.39067,25.87867H666.89486a18.80541,18.80541,0,0,0,17.37264-25.87867h25.302A39.52455,39.52455,0,0,1,749.09045,199.47433Z"
     transform="translate(-258.11835 -146.18436)"
     fill="#fff"
     id="path8" />
  <path
     d="M461.82966,341.7163a4.51065,4.51065,0,0,1-4.50534-4.50535V306.57461a4.50535,4.50535,0,0,1,9.01069,0V337.211A4.51066,4.51066,0,0,1,461.82966,341.7163Z"
     transform="translate(-258.11835 -146.18436)"
     fill="#3f3d56"
     id="path10" />
  <path
     d="M460.92859,282.24575a4.51064,4.51064,0,0,1-4.50534-4.50534V247.10407a4.50535,4.50535,0,0,1,9.01069,0v30.63634A4.51065,4.51065,0,0,1,460.92859,282.24575Z"
     transform="translate(-258.11835 -146.18436)"
     fill="#3f3d56"
     id="path12" />
  <path
     d="M580.77075,165.10681a4.51065,4.51065,0,0,1,4.50534-4.50535h30.63634a4.50535,4.50535,0,0,1,0,9.01069H585.27609A4.51064,4.51064,0,0,1,580.77075,165.10681Z"
     transform="translate(-258.11835 -146.18436)"
     fill="#fff"
     id="path14" />
  <path
     d="M461.82966,393.97829a4.51065,4.51065,0,0,1-4.50534-4.50535V358.8366a4.50535,4.50535,0,0,1,9.01069,0v30.63634A4.51066,4.51066,0,0,1,461.82966,393.97829Z"
     transform="translate(-258.11835 -146.18436)"
     fill="#3f3d56"
     id="path16" />
  <circle
     cx="374.91439"
     cy="18.92245"
     r="4.50534"
     fill="#fff"
     id="circle18" />
  <polygon
     points="332.956 574.34 345.082 574.339 350.85 527.569 332.954 527.569 332.956 574.34"
     fill="#9e616a"
     id="polygon20" />
  <path
     d="M587.9814,716.5654l3.413-.00014,13.32508-5.419,7.14185,5.41817h.001a15.219,15.219,0,0,1,15.21819,15.21795v.49453l-39.09841.00145Z"
     transform="translate(-258.11835 -146.18436)"
     fill="#2f2e41"
     id="path22" />
  <polygon
     points="389.29 574.34 401.416 574.339 407.184 527.569 389.288 527.569 389.29 574.34"
     fill="#9e616a"
     id="polygon24" />
  <path
     d="M644.31533,716.5654l3.413-.00014,13.32509-5.419,7.14184,5.41817h.001a15.219,15.219,0,0,1,15.21819,15.21795v.49453l-39.09841.00145Z"
     transform="translate(-258.11835 -146.18436)"
     fill="#2f2e41"
     id="path26" />
  <path
     d="M706.22756,727.72434q0,7.785-.49,15.44a3.0217,3.0217,0,0,1-.43.02h-194.68a39.53393,39.53393,0,0,1-38.34-29.9,37.34141,37.34141,0,0,1-.85-4.53,38.8522,38.8522,0,0,1-.33-5.09v-223.25a247.29539,247.29539,0,0,1,44.46,6.28c1.43.33,2.85.68,4.26,1.04.09.02.18005.05.27.07,1.43.36,2.85.74,4.26,1.13a246.32791,246.32791,0,0,1,83.25,40.99c1.43,1.07,2.85,2.17,4.26,3.28l.27.21q3.54,2.79,6.97,5.72c.51.43,1.02.87,1.52,1.32,1.23,1.06,2.46,2.14,3.66,3.23a248.1391,248.1391,0,0,1,61.8,86.06c.47,1.07.92,2.15,1.37,3.23q.27009.66.54,1.32c.17.4.33.8.49,1.2A247.05469,247.05469,0,0,1,706.22756,727.72434Z"
     transform="translate(-258.11835 -146.18436)"
     fill="#3f3d56"
     id="path38" />
  <path
     d="M616.39755,705.52433a71.22053,71.22053,0,0,1,71.23-71.23h.37q-.27-.66-.54-1.32c-.44995-1.08-.9-2.16-1.37-3.23h-69.69v-89.29h4.23c-.5-.45-1.01-.88995-1.52-1.32q-3.435-2.925-6.97-5.72l-.27-.21v2.7h-87.51v-46.97c-1.41-.39-2.83-.77-4.26-1.13-.09-.02-.18-.05-.27-.07v48.17h-44.46v4.55h44.46v89.29h-44.46v4.55h44.46v71.23h-44.13a37.34238,37.34238,0,0,0,.85,4.53h43.28v29.9h4.53v-29.9h87.51v29.9h4.53v-29.9h76.35v-4.53Zm-4.53,0h-87.51v-71.23h87.51Zm0-75.78h-87.51v-1.78a87.51059,87.51059,0,0,1,87.51-87.51Z"
     transform="translate(-258.11835 -146.18436)"
     opacity="0.2"
     id="path40" />
  <path
     d="M937.97766,489.45015a12.22537,12.22537,0,0,0-8.02486-4.27305,12.53089,12.53089,0,0,0-1.33777-.07276L698.00852,484.889a12.20521,12.20521,0,0,0-8.91882,3.82714,12.77113,12.77113,0,0,0-3.37171,8.81362l-.035,37.46068a46.421,46.421,0,0,0,4.30866,19.6535,52.3003,52.3003,0,0,1-7.86413,16.85156,10.45822,10.45822,0,0,0,9.27633,16.3998,70.79255,70.79255,0,0,0,7.25418-.82521,48.933,48.933,0,0,0,19.553-7.616,46.72787,46.72787,0,0,0,14.00348,2.15528l162.15478.1513a46.13126,46.13126,0,0,0,32.91093-13.63389,47.49683,47.49683,0,0,0,13.567-33.57252l.03441-36.77072A12.79278,12.79278,0,0,0,937.97766,489.45015Z"
     transform="translate(-258.11835 -146.18436)"
     fill="#6c63ff"
     id="path46" />
  <path
     d="M877.72448,518.88271l-128.889-.12033a2.80434,2.80434,0,1,1,.00523-5.60868l128.889.12033a2.80434,2.80434,0,0,1-.00524,5.60868Z"
     transform="translate(-258.11835 -146.18436)"
     fill="#fff"
     id="path48" />
  <path
     d="M877.70841,536.09608l-128.889-.12033a2.80434,2.80434,0,1,1,.00523-5.60868l128.889.12033a2.80434,2.80434,0,0,1-.00524,5.60868Z"
     transform="translate(-258.11835 -146.18436)"
     fill="#fff"
     id="path50" />
  <path
     d="M763.82349,553.20275l-15.02013-.014a2.80434,2.80434,0,1,1,.00523-5.60868l15.02013.014a2.80435,2.80435,0,0,1-.00523,5.60869Z"
     transform="translate(-258.11835 -146.18436)"
     fill="#fff"
     id="path52" />
  <path
     d="M261.31917,344.45015a12.22537,12.22537,0,0,1,8.02486-4.27305,12.53075,12.53075,0,0,1,1.33777-.07276l230.60651-.21539a12.20522,12.20522,0,0,1,8.91882,3.82714,12.77107,12.77107,0,0,1,3.3717,8.81362l.035,37.46068a46.421,46.421,0,0,1-4.30866,19.6535,52.3003,52.3003,0,0,0,7.86413,16.85156,10.45822,10.45822,0,0,1-9.27633,16.3998,70.79255,70.79255,0,0,1-7.25418-.82521,48.933,48.933,0,0,1-19.553-7.616,46.72792,46.72792,0,0,1-14.00348,2.15528l-162.15478.1513a46.13126,46.13126,0,0,1-32.91093-13.63389,47.49683,47.49683,0,0,1-13.567-33.57252l-.03441-36.77072A12.79278,12.79278,0,0,1,261.31917,344.45015Z"
     transform="translate(-258.11835 -146.18436)"
     fill="#6c63ff"
     id="path54" />
  <path
     d="M318.76539,371.081a2.80773,2.80773,0,0,1,2.80172-2.807l128.889-.12033a2.80434,2.80434,0,0,1,.00524,5.60868l-128.889.12033A2.80773,2.80773,0,0,1,318.76539,371.081Z"
     transform="translate(-258.11835 -146.18436)"
     fill="#fff"
     id="path56" />
  <path
     d="M318.78146,388.29435a2.80773,2.80773,0,0,1,2.80172-2.807l128.889-.12033a2.80434,2.80434,0,0,1,.00524,5.60868l-128.889.12033A2.80774,2.80774,0,0,1,318.78146,388.29435Z"
     transform="translate(-258.11835 -146.18436)"
     fill="#fff"
     id="path58" />
  <path
     d="M432.66638,405.401a2.80776,2.80776,0,0,1,2.80173-2.807l15.02012-.014a2.80434,2.80434,0,0,1,.00524,5.60868l-15.02013.014A2.80776,2.80776,0,0,1,432.66638,405.401Z"
     transform="translate(-258.11835 -146.18436)"
     fill="#fff"
     id="path60" />
  <path
     d="M894.97766,177.45015a12.22537,12.22537,0,0,0-8.02486-4.27305,12.53089,12.53089,0,0,0-1.33777-.07276L655.00852,172.889a12.20521,12.20521,0,0,0-8.91882,3.82714,12.77113,12.77113,0,0,0-3.37171,8.81362l-.035,37.46068a46.421,46.421,0,0,0,4.30866,19.6535,52.3003,52.3003,0,0,1-7.86413,16.85156,10.45822,10.45822,0,0,0,9.27633,16.3998,70.79255,70.79255,0,0,0,7.25418-.82521,48.933,48.933,0,0,0,19.553-7.616,46.72787,46.72787,0,0,0,14.00348,2.15528l162.15478.1513a46.13126,46.13126,0,0,0,32.91093-13.63389,47.49683,47.49683,0,0,0,13.567-33.57252l.03441-36.77072A12.79278,12.79278,0,0,0,894.97766,177.45015Z"
     transform="translate(-258.11835 -146.18436)"
     fill="#6c63ff"
     id="path66" />
  <path
     d="M834.72448,206.88271l-128.889-.12033a2.80434,2.80434,0,1,1,.00523-5.60868l128.889.12033a2.80434,2.80434,0,0,1-.00524,5.60868Z"
     transform="translate(-258.11835 -146.18436)"
     fill="#fff"
     id="path68" />
  <path
     d="M834.70841,224.09608l-128.889-.12033a2.80434,2.80434,0,1,1,.00523-5.60868l128.889.12033a2.80434,2.80434,0,0,1-.00524,5.60868Z"
     transform="translate(-258.11835 -146.18436)"
     fill="#fff"
     id="path70" />
  <path
     d="M720.82349,241.20275l-15.02013-.014a2.80434,2.80434,0,1,1,.00523-5.60868l15.02013.014a2.80435,2.80435,0,0,1-.00523,5.60869Z"
     transform="translate(-258.11835 -146.18436)"
     fill="#fff"
     id="path72" />
</svg>
